# xmcd
#
# Track frame offsets:
#       150
#       10867
#       23804
#       37348
#       48735
#       61947
#       78712
#       100469
#       107289
#       118941
#       132345
#       142592
#       157813
#       171402
#       185925
#       195773
#       215278
#       225542
#       234701
#       250073
#
# Disc length: 3446 seconds
#
# Revision: 0
# Processed by: cddbd v1.5.2PL0 Copyright (c) Steve Scherf et al.
# Submitted via: WhereIsIt 3.26
#
DISCID=110d7414
DTITLE=Various Country - That's Country CD-14
DYEAR=1900
DGENRE=Country
TTITLE0=jim reeves - If heartaches are the fashion
TTITLE1=Glen Yarborough - waltzing matilda
TTITLE2=ferlin Husky - baby
TTITLE3=barbara fairchild - colour my world
TTITLE4=kenny rogers - ruby don't take your love to town
TTITLE5=johnny lee - daddy 2
TTITLE6=dottie west - crazy,fall to pieces,sweet dreams,crazy
TTITLE7=waylon jennings - It's so easy
TTITLE8=carl perkins - lucille
TTITLE9=johnny paycheck - keeping up with the jones
TTITLE10=patsy cline - I love you honey
TTITLE11=eddie raven - you're too much for me
TTITLE12=carl perkins - every road
TTITLE13=george jones - It's funny what a fool will
TTITLE14=johnny cash - I could never be ashamed of you
TTITLE15=kenny rogers - lay it down
TTITLE16=connie smith - because I love you that's why
TTITLE17=bill monroe - prison song
TTITLE18=nitty gritty dirt band - dance little jean
TTITLE19=jim reeves - If you were mine
EXTD=
EXTT0=
EXTT1=
EXTT2=
EXTT3=
EXTT4=
EXTT5=
EXTT6=
EXTT7=
EXTT8=
EXTT9=
EXTT10=
EXTT11=
EXTT12=
EXTT13=
EXTT14=
EXTT15=
EXTT16=
EXTT17=
EXTT18=
EXTT19=
PLAYORDER=
